<?xml version="1.0" encoding="utf-8"?>
<!-- Generator: Adobe Illustrator 18.0.0, SVG Export Plug-In . SVG Version: 6.00 Build 0)  -->
<!DOCTYPE svg PUBLIC "-//W3C//DTD SVG 1.1//EN" "http://www.w3.org/Graphics/SVG/1.1/DTD/svg11.dtd">
<svg version="1.1" id="Icons" xmlns="http://www.w3.org/2000/svg" xmlns:xlink="http://www.w3.org/1999/xlink" x="0px" y="0px"
	 viewBox="0 0 99.3 99.3" enable-background="new 0 0 99.3 99.3" xml:space="preserve">
<path fill="#029DD8" d="M49.7,0C22.2,0,0,22.2,0,49.7c0,27.4,22.2,49.7,49.7,49.7c27.4,0,49.7-22.2,49.7-49.7
	C99.3,22.2,77.1,0,49.7,0z M50,73.3v19.5L38.4,75.7l-1.8-2.5c0,0-7.5-10.7-8.7-13.7c-1.5-3.1-2.3-6.6-2.3-10.3
	C25.6,35.8,36.4,25,49.8,25s24.2,10.8,24.2,24.2C73.9,62.4,63.2,73.2,50,73.3z"/>
</svg>
